<?xml version="1.0" encoding="UTF-8"?>
<svg id="Camada_2" data-name="Camada 2" xmlns="http://www.w3.org/2000/svg" xmlns:xlink="http://www.w3.org/1999/xlink" viewBox="0 0 789.43 215.7">
  <defs>
    <style>
      .cls-1 {
        fill: url(#Gradiente_sem_nome_135);
      }
    </style>
    <linearGradient id="Gradiente_sem_nome_135" data-name="Gradiente sem nome 135" x1="0" y1="107.85" x2="789.43" y2="107.85" gradientUnits="userSpaceOnUse">
      <stop offset="0" stop-color="#d4432c"/>
      <stop offset="1" stop-color="#d97055"/>
    </linearGradient>
  </defs>
  <g id="Camada_1-2" data-name="Camada 1">
    <path class="cls-1" d="M215.26,82.26c-7.95-4.7-16.96-7.05-27-7.05s-18.53,2.42-26.27,7.27c-7.75,4.84-13.85,11.49-18.32,19.93-4.47,8.44-6.7,18.17-6.7,29.18,0,10.13,2.41,19.42,7.22,27.86,4.81,8.44,11.3,15.23,19.47,20.37,8.16,5.14,17.34,7.93,27.53,8.37,5.3.14,10.78-.63,16.43-2.31,5.65-1.69,10.88-4,15.7-6.94,3.9-2.38,7.14-4.95,9.71-7.72.99-1.06.96-2.77-.02-3.84l-14.46-15.74c-.97-1.05-2.55-1.14-3.6-.18-1.24,1.12-2.71,2.21-4.39,3.26-2.58,1.62-5.27,2.86-8.06,3.74-2.79.88-5.51,1.32-8.16,1.32-5.16,0-9.84-1.32-14.02-3.96-4.19-2.64-7.5-6.28-9.94-10.9-.73-1.37-1.33-2.81-1.84-4.29h69.22c1.32,0,2.44-1.01,2.62-2.39.09-.73.17-1.51.23-2.35.14-1.83.21-3.41.21-4.73.14-11.01-2.09-20.73-6.7-29.18-4.61-8.44-10.89-15.01-18.84-19.71ZM167.89,120.13c.43-1.5.97-2.93,1.63-4.29,1.88-3.89,4.57-6.94,8.06-9.14,3.49-2.2,7.54-3.3,12.14-3.3,5.02,0,9.24.99,12.66,2.97,3.42,1.98,6,4.84,7.75,8.59.75,1.62,1.34,3.35,1.76,5.18h-44ZM143.69,179.89c1.42,1.81.2,4.55-2.04,4.55h-42.37c-.78,0-1.51-.36-2.01-.98l-52.25-64.85c-.39-.5-.61-1.12-.61-1.77v-32.64c0-1.53,1.18-2.78,2.64-2.78h36.35c4.17,0,7.89-1.01,11.15-3.03,3.26-2.02,5.84-4.7,7.76-8.04,1.92-3.34,2.88-7.2,2.88-11.59s-.96-8.04-2.88-11.46c-1.92-3.43-4.51-6.1-7.76-8.04-3.26-1.93-6.97-2.9-11.15-2.9h-45.68c-.78,0-1.41.66-1.41,1.48v143.82c0,1.53-1.18,2.78-2.64,2.78H2.64c-1.46,0-2.64-1.24-2.64-2.78V2.78C0,1.24,1.18,0,2.64,0h80.76c10.68,0,20.29,2.59,28.8,7.77,8.52,5.18,15.32,12.25,20.41,21.21,5.09,8.96,7.64,18.97,7.64,30.04s-2.55,20.77-7.64,29.64c-5.1,8.87-11.9,15.94-20.41,21.21-5.57,3.44-11.6,5.75-18.09,6.95l49.58,63.07ZM350.86,156.63c-2.55,5.69-5.92,10.74-10.11,15.15-4.81,5.06-10.43,9.03-16.85,11.89-6.42,2.86-13.4,4.29-20.93,4.29-10.05,0-19.15-2.5-27.32-7.49-8.16-4.99-14.62-11.74-19.36-20.26-4.75-8.51-7.12-18.06-7.12-28.63s2.37-20.11,7.12-28.63c4.74-8.51,11.2-15.27,19.36-20.26,8.16-4.99,17.27-7.49,27.32-7.49,6.84,0,13.22,1.18,19.15,3.52,5.93,2.35,11.27,5.65,16.01,9.91,4.09,3.68,7.57,7.96,10.42,12.83.75,1.29.39,2.98-.81,3.8l-17.46,11.9c-1.23.84-2.88.47-3.65-.84-1.15-1.93-2.61-3.68-4.4-5.24-2.51-2.2-5.31-3.96-8.37-5.28-3.07-1.32-6.28-1.98-9.63-1.98-5.02,0-9.56,1.21-13.61,3.63-4.05,2.42-7.15,5.73-9.31,9.91-2.17,4.18-3.24,8.92-3.24,14.2s1.08,9.8,3.24,13.98c2.16,4.18,5.27,7.42,9.31,9.69,4.05,2.28,8.58,3.41,13.61,3.41,3.63,0,7.01-.66,10.15-1.98,3.14-1.32,5.93-3.19,8.37-5.62,1.83-1.82,3.33-3.82,4.49-6.01.67-1.25,2.17-1.72,3.41-1.13l18.9,8.97c1.34.64,1.94,2.32,1.31,3.72ZM438.19,82.26c-7.95-4.7-16.95-7.05-27-7.05s-18.52,2.42-26.27,7.27c-7.75,4.84-13.85,11.49-18.32,19.93-4.47,8.44-6.7,18.17-6.7,29.18,0,10.13,2.41,19.42,7.22,27.86,4.81,8.44,11.3,15.23,19.47,20.37,8.16,5.14,17.34,7.93,27.53,8.37,5.3.14,10.78-.63,16.43-2.31s10.88-4,15.7-6.94c3.9-2.38,7.14-4.95,9.71-7.72.99-1.06.96-2.77-.02-3.84l-14.46-15.74c-.97-1.05-2.55-1.14-3.6-.18-1.24,1.12-2.71,2.21-4.39,3.26-2.58,1.62-5.27,2.86-8.06,3.74-2.79.88-5.51,1.32-8.16,1.32-5.16,0-9.84-1.32-14.02-3.96s-7.5-6.28-9.94-10.9c-.73-1.37-1.33-2.81-1.84-4.29h69.22c1.32,0,2.44-1.01,2.62-2.39.09-.73.17-1.51.23-2.35.14-1.83.21-3.41.21-4.73.14-11.01-2.09-20.73-6.7-29.18-4.61-8.44-10.88-15.01-18.84-19.71ZM390.82,120.13c.43-1.5.97-2.93,1.63-4.29,1.88-3.89,4.57-6.94,8.06-9.14,3.49-2.2,7.54-3.3,12.14-3.3,5.02,0,9.24.99,12.66,2.97,3.42,1.98,6,4.84,7.75,8.59.75,1.62,1.34,3.35,1.76,5.18h-44ZM672.42,47.7v24.73c0,1.53-1.18,2.78-2.64,2.78h-32.32v64.96c0,2.94.63,5.54,1.88,7.82,1.26,2.28,2.96,4.11,5.13,5.51,2.16,1.4,4.57,2.09,7.22,2.09h18.08c1.46,0,2.64,1.24,2.64,2.78v23.29c0,1.53-1.18,2.78-2.64,2.78h-23.73c-7.26,0-13.85-1.98-19.78-5.95-5.93-3.96-10.61-9.28-14.03-15.97-3.42-6.68-5.13-14.13-5.13-22.35v-64.96h-25.28c-1.46,0-2.64-1.24-2.64-2.78v-24.73c0-1.53,1.18-2.78,2.64-2.78h25.28v-28.49c0-1.53,1.18-2.78,2.64-2.78h25.07c1.46,0,2.64,1.24,2.64,2.78v28.49h32.32c1.46,0,2.64,1.24,2.64,2.78ZM582.31,102.96c4.53,8.52,6.8,18.06,6.8,28.63s-2.27,19.93-6.8,28.52c-4.54,8.59-10.61,15.38-18.21,20.37-7.61,4.99-16.15,7.49-25.64,7.49-6.88,0-13.27-1.4-19.17-4.18-1.07-.51-1.77-1.62-1.77-2.86v-24.69c0-2.04,2.09-3.31,3.77-2.3,3.77,2.28,7.88,3.41,12.35,3.41,4.74,0,8.96-1.14,12.66-3.41,3.7-2.27,6.63-5.36,8.79-9.25,2.16-3.89,3.25-8.26,3.25-13.1s-1.08-9.21-3.25-13.1c-2.16-3.89-5.1-6.97-8.79-9.25-3.7-2.27-7.92-3.41-12.66-3.41-4.47,0-8.58,1.14-12.35,3.41-3.77,2.28-6.77,5.36-9,9.25-2.23,3.89-3.35,8.19-3.35,12.88,0,.11,0,.23,0,.34h0v80.89c0,1.72-1.33,3.12-2.96,3.12h-23.8c-1.64,0-2.96-1.4-2.96-3.12V81.85c0-1.72,1.33-3.12,2.96-3.12h23.8c1.64,0,2.96,1.4,2.96,3.12v3.56c0,.28.31.44.52.26,1.28-1.05,2.6-2.05,3.98-2.98,7.46-4.99,15.8-7.49,25.01-7.49s18.03,2.5,25.64,7.49c7.6,4.99,13.68,11.75,18.21,20.26ZM789.43,81.51v100.14c0,1.53-1.18,2.78-2.64,2.78h-24.44c-1.46,0-2.64-1.24-2.64-2.78v-50.07h-.21c0-4.84-1.12-9.21-3.35-13.1-2.23-3.89-5.23-6.97-9-9.25-3.77-2.27-7.89-3.41-12.35-3.41-4.75,0-8.97,1.14-12.66,3.41-3.7,2.28-6.67,5.36-8.9,9.25-2.23,3.89-3.35,8.19-3.35,12.88s1.12,9.25,3.35,13.21c2.23,3.96,5.2,7.09,8.9,9.36,3.7,2.28,7.92,3.41,12.66,3.41,4.46,0,8.58-1.14,12.35-3.41l.03-.02c1.76-1.06,3.96.27,3.96,2.41v24.6c0,1.09-.62,2.08-1.56,2.54-6.11,2.99-12.77,4.49-20.01,4.49-9.35,0-17.83-2.5-25.43-7.49-7.61-4.99-13.64-11.78-18.11-20.37-4.47-8.59-6.7-18.09-6.7-28.52s2.23-20.11,6.7-28.63c4.46-8.51,10.5-15.27,18.11-20.26,7.6-4.99,16.08-7.49,25.43-7.49s17.76,2.5,25.22,7.49c1.72,1.15,3.36,2.41,4.92,3.75v-4.94c0-1.53,1.18-2.78,2.64-2.78h24.44c1.46,0,2.64,1.24,2.64,2.78Z"/>
  </g>
</svg>