<?xml version="1.0" encoding="UTF-8"?>
<svg id="Camada_2" data-name="Camada 2" xmlns="http://www.w3.org/2000/svg" xmlns:xlink="http://www.w3.org/1999/xlink" viewBox="0 0 244.43 265.78">
  <defs>
    <style>
      .cls-1 {
        fill: url(#Gradiente_sem_nome_135);
      }
    </style>
    <linearGradient id="Gradiente_sem_nome_135" data-name="Gradiente sem nome 135" x1="0" y1="132.89" x2="244.43" y2="132.89" gradientUnits="userSpaceOnUse">
      <stop offset="0" stop-color="#d4432c"/>
      <stop offset="1" stop-color="#d97055"/>
    </linearGradient>
  </defs>
  <g id="Camada_1-2" data-name="Camada 1">
    <path class="cls-1" d="M240.43,193.64c2.21,0,4-1.79,4-4v-29.55c0-2.21-1.79-4-4-4h-41.59v-24.9l2.21-3.43c7.72-12.78,11.58-27.02,11.58-42.71s-3.86-30.38-11.58-43.28c-7.72-12.91-18.04-23.1-30.94-30.56C157.19,3.74,142.63,0,126.44,0H4C1.79,0,0,1.79,0,4v257.77c0,2.21,1.79,4,4,4h47.05c2.21,0,4-1.79,4-4V56.4c0-2.21,1.79-4,4-4h67.38c6.32,0,11.96,1.39,16.9,4.18,4.94,2.79,8.86,6.64,11.77,11.58,2.91,4.94,4.37,10.44,4.37,16.52s-1.46,11.9-4.37,16.71c-2.91,4.81-6.83,8.67-11.77,11.58-4.94,2.91-10.57,4.37-16.9,4.37h-55.11c-2.21,0-4,1.79-4,4v46.56c0,1.24.44,2.44,1.23,3.4l78.91,93.08c.76.9,1.88,1.41,3.05,1.41h31.96c3.95,0,5.35-5.16,1.98-7.23-.08-.05-.16-.1-.24-.15-7.74-4.91-13.84-11.51-18.29-19.8-4.46-8.28-6.69-17.52-6.69-27.71v-15.93c0-.73-.59-1.33-1.33-1.33h-31.08c-2.21,0-4-1.79-4-4v-29.55c0-2.21,1.79-4,4-4h31.08c.73,0,1.33-.59,1.33-1.33v-33.44c0-2.21,1.79-4,4-4h31.58c2.21,0,4,1.79,4,4v9.87c-7.45,11.18-17.01,20.24-28.73,27.14-2.15,1.27-4.35,2.43-6.6,3.48-9.55,4.49-12.46,16.66-5.73,24.79l60.06,72.62,4.09,5.07c.76.94,1.91,1.49,3.11,1.49h15.38c2.21,0,4-1.79,4-4v-27.76c0-2.21-1.79-4-4-4h-23.03c-3.46,0-6.6-.86-9.42-2.59-2.82-1.73-5.05-4-6.69-6.83-1.64-2.82-2.46-6.05-2.46-9.69v-17.26h41.59Z"/>
  </g>
</svg>