<?xml version="1.0" encoding="UTF-8"?>
<svg id="Camada_2" data-name="Camada 2" xmlns="http://www.w3.org/2000/svg" xmlns:xlink="http://www.w3.org/1999/xlink" viewBox="0 0 1731.19 1457.29">
  <defs>
    <style>
      .cls-1 {
        fill: #f1ebe0;
      }

      .cls-2 {
        fill: none;
      }

      .cls-3 {
        fill: url(#Novo_padrão);
      }

      .cls-4 {
        fill: #fff5d9;
        opacity: .38;
      }
    </style>
    <pattern id="Novo_padrão" data-name="Novo padrão" x="0" y="0" width="240" height="230" patternTransform="translate(4525.3 7114.1)" patternUnits="userSpaceOnUse" viewBox="0 0 240 230">
      <g>
        <rect class="cls-2" width="240" height="230"/>
        <g>
          <path class="cls-1" d="M264.15,160.5c.97-.56,1.3-1.8.74-2.77l-9.03-15.63c-.56-.97-1.8-1.3-2.77-.74l-21.49,12.41-10.4-18.01c-.56-.97-1.8-1.3-2.77-.74l-16.67,9.63c-.97.56-1.3,1.8-.74,2.77l10.4,18.01-16.81,9.7c-.97.56-1.3,1.8-.74,2.77l9.03,15.63c.56.97,1.8,1.3,2.77.74l16.81-9.7,5.08,8.8c3,5.2,6.86,9.25,11.57,12.16,4.71,2.91,9.76,4.48,15.15,4.71,5.39.23,10.5-1.05,15.32-3.84l4.59-2.65,11.19-6.46c.97-.56,1.3-1.8.74-2.77l-8.5-14.72c-.56-.97-1.8-1.3-2.77-.74l-12.02,6.94c-1.76,1.02-3.62,1.5-5.57,1.45-1.95-.05-3.75-.55-5.42-1.51-1.67-.96-3.03-2.36-4.11-4.22l-5.08-8.8,21.49-12.41Z"/>
          <path class="cls-4" d="M242.66,172.91l5.08,8.8c1.08,1.86,2.44,3.27,4.11,4.22,1.66.96,3.47,1.46,5.42,1.51,1.95.05,3.8-.44,5.56-1.45l11.74-6.78c1.13-.65,2.57-.26,3.22.87l8.17,14.15c.65,1.13.27,2.57-.86,3.22l-7.85,4.53c-.61.35-1.35.41-2.02.15l-3.58-1.38-52-19.34c-5.82-2.17-7.93-9.23-4.38-14.33.84-1.2,1.62-2.44,2.34-3.72,3.95-6.97,6.16-14.4,6.66-22.29l7.33,12.69,21.21-12.24c1.13-.65,2.57-.26,3.22.87l8.7,15.06c.65,1.13.27,2.57-.86,3.22l-21.21,12.24Z"/>
        </g>
        <g>
          <path class="cls-1" d="M144.15,218c.97-.56,1.3-1.8.74-2.77l-9.03-15.63c-.56-.97-1.8-1.3-2.77-.74l-21.49,12.41-10.4-18.01c-.56-.97-1.8-1.3-2.77-.74l-16.67,9.63c-.97.56-1.3,1.8-.74,2.77l10.4,18.01-16.81,9.7c-.97.56-1.3,1.8-.74,2.77l9.03,15.63c.56.97,1.8,1.3,2.77.74l16.81-9.7,5.08,8.8c3,5.2,6.86,9.25,11.57,12.16,4.71,2.91,9.76,4.48,15.15,4.71,5.39.23,10.5-1.05,15.32-3.84l4.59-2.65,11.19-6.46c.97-.56,1.3-1.8.74-2.77l-8.5-14.72c-.56-.97-1.8-1.3-2.77-.74l-12.02,6.94c-1.76,1.02-3.62,1.5-5.57,1.45-1.95-.05-3.75-.55-5.42-1.51-1.67-.96-3.03-2.36-4.11-4.22l-5.08-8.8,21.49-12.41Z"/>
          <path class="cls-4" d="M122.66,230.41l5.08,8.8c1.08,1.86,2.44,3.27,4.11,4.22,1.66.96,3.47,1.46,5.42,1.51,1.95.05,3.8-.44,5.56-1.45l11.74-6.78c1.13-.65,2.57-.26,3.22.87l8.17,14.15c.65,1.13.27,2.57-.86,3.22l-7.85,4.53c-.61.35-1.35.41-2.02.15l-3.58-1.38-52-19.34c-5.82-2.17-7.93-9.23-4.38-14.33.84-1.2,1.62-2.44,2.34-3.72,3.95-6.97,6.16-14.4,6.66-22.29l7.33,12.69,21.21-12.24c1.13-.65,2.57-.26,3.22.87l8.7,15.06c.65,1.13.27,2.57-.86,3.22l-21.21,12.24Z"/>
        </g>
        <g>
          <path class="cls-1" d="M24.15,160.5c.97-.56,1.3-1.8.74-2.77l-9.03-15.63c-.56-.97-1.8-1.3-2.77-.74l-21.49,12.41-10.4-18.01c-.56-.97-1.8-1.3-2.77-.74l-16.67,9.63c-.97.56-1.3,1.8-.74,2.77l10.4,18.01-16.81,9.7c-.97.56-1.3,1.8-.74,2.77l9.03,15.63c.56.97,1.8,1.3,2.77.74l16.81-9.7,5.08,8.8c3,5.2,6.86,9.25,11.57,12.16,4.71,2.91,9.76,4.48,15.15,4.71,5.39.23,10.5-1.05,15.32-3.84l4.59-2.65,11.19-6.46c.97-.56,1.3-1.8.74-2.77l-8.5-14.72c-.56-.97-1.8-1.3-2.77-.74l-12.02,6.94c-1.76,1.02-3.62,1.5-5.57,1.45-1.95-.05-3.75-.55-5.42-1.51-1.67-.96-3.03-2.36-4.11-4.22l-5.08-8.8,21.49-12.41Z"/>
          <path class="cls-4" d="M2.66,172.91l5.08,8.8c1.08,1.86,2.44,3.27,4.11,4.22,1.66.96,3.47,1.46,5.42,1.51,1.95.05,3.8-.44,5.56-1.45l11.74-6.78c1.13-.65,2.57-.26,3.22.87l8.17,14.15c.65,1.13.27,2.57-.86,3.22l-7.85,4.53c-.61.35-1.35.41-2.02.15l-3.58-1.38-52-19.34c-5.82-2.17-7.93-9.23-4.38-14.33.84-1.2,1.62-2.44,2.34-3.72,3.95-6.97,6.16-14.4,6.66-22.29l7.33,12.69,21.21-12.24c1.13-.65,2.57-.26,3.22.87l8.7,15.06c.65,1.13.27,2.57-.86,3.22l-21.21,12.24Z"/>
        </g>
        <g>
          <path class="cls-1" d="M264.15,45.5c.97-.56,1.3-1.8.74-2.77l-9.03-15.63c-.56-.97-1.8-1.3-2.77-.74l-21.49,12.41-10.4-18.01c-.56-.97-1.8-1.3-2.77-.74l-16.67,9.63c-.97.56-1.3,1.8-.74,2.77l10.4,18.01-16.81,9.7c-.97.56-1.3,1.8-.74,2.77l9.03,15.63c.56.97,1.8,1.3,2.77.74l16.81-9.7,5.08,8.8c3,5.2,6.86,9.25,11.57,12.16,4.71,2.91,9.76,4.48,15.15,4.71,5.39.23,10.5-1.05,15.32-3.84l4.59-2.65,11.19-6.46c.97-.56,1.3-1.8.74-2.77l-8.5-14.72c-.56-.97-1.8-1.3-2.77-.74l-12.02,6.94c-1.76,1.02-3.62,1.5-5.57,1.45-1.95-.05-3.75-.55-5.42-1.51-1.67-.96-3.03-2.36-4.11-4.22l-5.08-8.8,21.49-12.41Z"/>
          <path class="cls-4" d="M242.66,57.91l5.08,8.8c1.08,1.86,2.44,3.27,4.11,4.22,1.66.96,3.47,1.46,5.42,1.51,1.95.05,3.8-.44,5.56-1.45l11.74-6.78c1.13-.65,2.57-.26,3.22.87l8.17,14.15c.65,1.13.27,2.57-.86,3.22l-7.85,4.53c-.61.35-1.35.41-2.02.15l-3.58-1.38-52-19.34c-5.82-2.17-7.93-9.23-4.38-14.33.84-1.2,1.62-2.44,2.34-3.72,3.95-6.97,6.16-14.4,6.66-22.29l7.33,12.69,21.21-12.24c1.13-.65,2.57-.26,3.22.87l8.7,15.06c.65,1.13.27,2.57-.86,3.22l-21.21,12.24Z"/>
        </g>
        <g>
          <path class="cls-1" d="M144.15,103c.97-.56,1.3-1.8.74-2.77l-9.03-15.63c-.56-.97-1.8-1.3-2.77-.74l-21.49,12.41-10.4-18.01c-.56-.97-1.8-1.3-2.77-.74l-16.67,9.63c-.97.56-1.3,1.8-.74,2.77l10.4,18.01-16.81,9.7c-.97.56-1.3,1.8-.74,2.77l9.03,15.63c.56.97,1.8,1.3,2.77.74l16.81-9.7,5.08,8.8c3,5.2,6.86,9.25,11.57,12.16,4.71,2.91,9.76,4.48,15.15,4.71,5.39.23,10.5-1.05,15.32-3.84l4.59-2.65,11.19-6.46c.97-.56,1.3-1.8.74-2.77l-8.5-14.72c-.56-.97-1.8-1.3-2.77-.74l-12.02,6.94c-1.76,1.02-3.62,1.5-5.57,1.45-1.95-.05-3.75-.55-5.42-1.51-1.67-.96-3.03-2.36-4.11-4.22l-5.08-8.8,21.49-12.41Z"/>
          <path class="cls-4" d="M122.66,115.41l5.08,8.8c1.08,1.86,2.44,3.27,4.11,4.22,1.66.96,3.47,1.46,5.42,1.51,1.95.05,3.8-.44,5.56-1.45l11.74-6.78c1.13-.65,2.57-.26,3.22.87l8.17,14.15c.65,1.13.27,2.57-.86,3.22l-7.85,4.53c-.61.35-1.35.41-2.02.15l-3.58-1.38-52-19.34c-5.82-2.17-7.93-9.23-4.38-14.33.84-1.2,1.62-2.44,2.34-3.72,3.95-6.97,6.16-14.4,6.66-22.29l7.33,12.69,21.21-12.24c1.13-.65,2.57-.26,3.22.87l8.7,15.06c.65,1.13.27,2.57-.86,3.22l-21.21,12.24Z"/>
        </g>
        <g>
          <path class="cls-1" d="M24.15,45.5c.97-.56,1.3-1.8.74-2.77l-9.03-15.63c-.56-.97-1.8-1.3-2.77-.74l-21.49,12.41-10.4-18.01c-.56-.97-1.8-1.3-2.77-.74l-16.67,9.63c-.97.56-1.3,1.8-.74,2.77l10.4,18.01-16.81,9.7c-.97.56-1.3,1.8-.74,2.77l9.03,15.63c.56.97,1.8,1.3,2.77.74l16.81-9.7,5.08,8.8c3,5.2,6.86,9.25,11.57,12.16,4.71,2.91,9.76,4.48,15.15,4.71,5.39.23,10.5-1.05,15.32-3.84l4.59-2.65,11.19-6.46c.97-.56,1.3-1.8.74-2.77l-8.5-14.72c-.56-.97-1.8-1.3-2.77-.74l-12.02,6.94c-1.76,1.02-3.62,1.5-5.57,1.45-1.95-.05-3.75-.55-5.42-1.51-1.67-.96-3.03-2.36-4.11-4.22l-5.08-8.8,21.49-12.41Z"/>
          <path class="cls-4" d="M2.66,57.91l5.08,8.8c1.08,1.86,2.44,3.27,4.11,4.22,1.66.96,3.47,1.46,5.42,1.51,1.95.05,3.8-.44,5.56-1.45l11.74-6.78c1.13-.65,2.57-.26,3.22.87l8.17,14.15c.65,1.13.27,2.57-.86,3.22l-7.85,4.53c-.61.35-1.35.41-2.02.15l-3.58-1.38-52-19.34c-5.82-2.17-7.93-9.23-4.38-14.33.84-1.2,1.62-2.44,2.34-3.72,3.95-6.97,6.16-14.4,6.66-22.29l7.33,12.69,21.21-12.24c1.13-.65,2.57-.26,3.22.87l8.7,15.06c.65,1.13.27,2.57-.86,3.22L2.66,57.91Z"/>
        </g>
        <g>
          <path class="cls-1" d="M144.15-12c.97-.56,1.3-1.8.74-2.77l-9.03-15.63c-.56-.97-1.8-1.3-2.77-.74l-21.49,12.41-10.4-18.01c-.56-.97-1.8-1.3-2.77-.74l-16.67,9.63c-.97.56-1.3,1.8-.74,2.77l10.4,18.01-16.81,9.7c-.97.56-1.3,1.8-.74,2.77l9.03,15.63c.56.97,1.8,1.3,2.77.74l16.81-9.7,5.08,8.8c3,5.2,6.86,9.25,11.57,12.16,4.71,2.91,9.76,4.48,15.15,4.71,5.39.23,10.5-1.05,15.32-3.84l4.59-2.65,11.19-6.46c.97-.56,1.3-1.8.74-2.77l-8.5-14.72c-.56-.97-1.8-1.3-2.77-.74l-12.02,6.94c-1.76,1.02-3.62,1.5-5.57,1.45-1.95-.05-3.75-.55-5.42-1.51-1.67-.96-3.03-2.36-4.11-4.22L122.66.41l21.49-12.41Z"/>
          <path class="cls-4" d="M122.66.41l5.08,8.8c1.08,1.86,2.44,3.27,4.11,4.22,1.66.96,3.47,1.46,5.42,1.51,1.95.05,3.8-.44,5.56-1.45l11.74-6.78c1.13-.65,2.57-.26,3.22.87l8.17,14.15c.65,1.13.27,2.57-.86,3.22l-7.85,4.53c-.61.35-1.35.41-2.02.15l-3.58-1.38-52-19.34c-5.82-2.17-7.93-9.23-4.38-14.33.84-1.2,1.62-2.44,2.34-3.72,3.95-6.97,6.16-14.4,6.66-22.29l7.33,12.69,21.21-12.24c1.13-.65,2.57-.26,3.22.87l8.7,15.06c.65,1.13.27,2.57-.86,3.22L122.66.41Z"/>
        </g>
      </g>
    </pattern>
  </defs>
  <g id="Camada_de_Informações_da_amostra" data-name="Camada de Informações da amostra">
    <rect class="cls-3" width="1731.19" height="1457.29"/>
  </g>
</svg>